#define snoopy_width 128
#define snoopy_height 64
static unsigned char snoopy_bits[] = {
   0x00, 0x00, 0xfe, 0x03, 0x00, 0x00, 0x00, 0x00, 0x00, 0x00, 0x00, 0x00,
   0x00, 0x00, 0x00, 0x00, 0x00, 0xc0, 0xff, 0x0f, 0x00, 0x00, 0x00, 0x00,
   0x00, 0x00, 0x00, 0x00, 0x00, 0x00, 0x00, 0x00, 0x00, 0xf0, 0x00, 0x38,
   0x1f, 0x00, 0x00, 0x00, 0x00, 0x00, 0x00, 0x00, 0x00, 0x00, 0x00, 0x00,
   0x00, 0x38, 0x00, 0xe0, 0x71, 0x00, 0x00, 0x00, 0x00, 0x00, 0x00, 0x1e,
   0x00, 0x00, 0x00, 0x00, 0x00, 0x1c, 0x00, 0x40, 0xc0, 0x00, 0x00, 0x00,
   0x00, 0x00, 0x00, 0x7f, 0x00, 0x00, 0x00, 0x06, 0x00, 0x0e, 0x00, 0x20,
   0x8e, 0x00, 0x00, 0x00, 0x00, 0x00, 0xc0, 0x7f, 0x00, 0x00, 0x80, 0x0f,
   0x00, 0x07, 0x00, 0x30, 0x9f, 0x01, 0x00, 0x00, 0x00, 0x00, 0xe0, 0xff,
   0x10, 0x00, 0xe0, 0x1f, 0x00, 0x03, 0x00, 0x90, 0x3f, 0x01, 0x00, 0x00,
   0x00, 0x00, 0xf0, 0x7f, 0x7c, 0x00, 0xf0, 0x0f, 0x80, 0x03, 0x00, 0x90,
   0x3f, 0x0f, 0x00, 0x00, 0x00, 0x00, 0xf8, 0x1f, 0x7e, 0x00, 0xf8, 0x03,
   0x80, 0x01, 0x00, 0x90, 0xbf, 0xfd, 0x00, 0x00, 0x00, 0x00, 0xfc, 0x07,
   0x3e, 0x00, 0xfc, 0x01, 0x80, 0x01, 0x0f, 0x90, 0x9f, 0xc0, 0x01, 0x00,
   0x00, 0x00, 0xfe, 0x03, 0x3c, 0x00, 0xfc, 0x01, 0x80, 0x80, 0x19, 0x98,
   0xcf, 0x00, 0x07, 0x00, 0x00, 0x00, 0xff, 0xe0, 0xf8, 0x00, 0xfe, 0x00,
   0xc0, 0xc0, 0xf0, 0x3f, 0x60, 0x00, 0x0c, 0x00, 0x00, 0x00, 0x7f, 0xf0,
   0xf1, 0x00, 0x7e, 0x00, 0xc0, 0x40, 0xa0, 0xf9, 0x38, 0x00, 0x18, 0x00,
   0x00, 0x80, 0x3f, 0xf8, 0xc1, 0x01, 0x7e, 0x00, 0xc0, 0x60, 0xe0, 0xcf,
   0x0f, 0x00, 0x10, 0x00, 0x00, 0xc0, 0x1f, 0xfc, 0x80, 0x07, 0x1f, 0x00,
   0xc0, 0x60, 0x60, 0x64, 0x00, 0x00, 0x30, 0x00, 0x00, 0xc0, 0x0f, 0xfe,
   0x00, 0x0f, 0x1f, 0x00, 0xc0, 0x20, 0x60, 0x60, 0x00, 0x00, 0x20, 0x00,
   0x00, 0xe0, 0x03, 0xff, 0x00, 0x9c, 0x0f, 0x00, 0xc0, 0x20, 0x40, 0x30,
   0x00, 0x00, 0xe0, 0x01, 0x00, 0xf0, 0x83, 0xff, 0x00, 0xf0, 0x07, 0x00,
   0x80, 0x61, 0x60, 0x30, 0x00, 0x00, 0xe0, 0x03, 0x00, 0xf0, 0xc3, 0xff,
   0x00, 0xe0, 0x07, 0x00, 0x80, 0x41, 0x60, 0x10, 0x00, 0x00, 0xe0, 0x03,
   0x00, 0xf8, 0xf1, 0x7f, 0x00, 0xe0, 0x03, 0x00, 0x80, 0xc1, 0x30, 0x18,
   0x00, 0x00, 0xe0, 0x03, 0x00, 0xf8, 0xf9, 0x7f, 0x00, 0xf0, 0x03, 0x00,
   0x80, 0x83, 0x19, 0x08, 0x00, 0x00, 0xf0, 0x01, 0x00, 0xfc, 0xfe, 0x7e,
   0x00, 0xf0, 0x07, 0x00, 0x00, 0x03, 0x0f, 0x0c, 0x00, 0x00, 0xf8, 0x00,
   0x00, 0xfc, 0x7f, 0x3e, 0x00, 0xf8, 0x1f, 0x00, 0x00, 0x07, 0x00, 0x0c,
   0x00, 0x00, 0x18, 0x00, 0x00, 0xfc, 0x3f, 0x3e, 0x00, 0x78, 0x3e, 0x00,
   0x00, 0x0e, 0x00, 0x04, 0x00, 0x00, 0x0c, 0x00, 0x00, 0xf8, 0x1f, 0x3f,
   0x00, 0x7c, 0x3c, 0x00, 0x00, 0x1c, 0x00, 0x86, 0x03, 0x00, 0x06, 0x00,
   0x00, 0xf8, 0x0f, 0x3f, 0x00, 0x3c, 0x78, 0x00, 0x00, 0x3c, 0x00, 0x06,
   0x01, 0x80, 0x03, 0x00, 0x00, 0xe0, 0x0f, 0x3f, 0x00, 0x36, 0xf0, 0x00,
   0x00, 0x78, 0x00, 0x06, 0x03, 0xf0, 0x00, 0x00, 0x00, 0x00, 0x06, 0x1f,
   0x00, 0x1b, 0xe0, 0x00, 0x00, 0xf0, 0x01, 0x06, 0x86, 0x1f, 0x00, 0x00,
   0x00, 0x00, 0x00, 0x1f, 0x80, 0x09, 0xe0, 0x07, 0x00, 0xc0, 0x0f, 0x04,
   0xfc, 0x01, 0x00, 0x00, 0x00, 0x00, 0x80, 0x1f, 0x80, 0x01, 0xc0, 0x07,
   0x00, 0x00, 0x3f, 0x0c, 0x1e, 0x00, 0x60, 0x00, 0x00, 0x00, 0x80, 0x0f,
   0xc0, 0x01, 0xc0, 0x07, 0x00, 0x00, 0x70, 0xb8, 0x03, 0x00, 0x30, 0x00,
   0x00, 0x00, 0x80, 0x0f, 0xc0, 0x01, 0x80, 0x04, 0x80, 0x01, 0x40, 0xe0,
   0x00, 0x00, 0x18, 0x00, 0x00, 0x00, 0x80, 0x0f, 0x60, 0x00, 0x00, 0x06,
   0xe0, 0x03, 0x40, 0x4c, 0x00, 0x00, 0x0c, 0x00, 0x00, 0x00, 0xc0, 0x07,
   0x30, 0x00, 0x00, 0x00, 0x70, 0x06, 0xdc, 0x7b, 0x00, 0x00, 0x06, 0x00,
   0x00, 0x00, 0xc0, 0x07, 0x30, 0x00, 0x00, 0x00, 0x50, 0x1e, 0xd7, 0x60,
   0xc0, 0x01, 0x03, 0x00, 0x00, 0x00, 0xe0, 0x07, 0x18, 0x00, 0x00, 0x00,
   0x70, 0xf0, 0x71, 0x40, 0xe0, 0x83, 0x01, 0x00, 0x00, 0x00, 0xe0, 0x03,
   0x0c, 0x00, 0x00, 0x00, 0x38, 0x39, 0xc0, 0xdf, 0x3f, 0xfe, 0x00, 0x00,
   0x00, 0x00, 0xe0, 0x03, 0x0c, 0x00, 0x00, 0x00, 0xec, 0x8c, 0xe1, 0x91,
   0x30, 0x62, 0x00, 0x00, 0x00, 0x00, 0xf0, 0x03, 0x06, 0x00, 0x00, 0x00,
   0xbc, 0xc7, 0x38, 0x6f, 0x78, 0x70, 0x00, 0x00, 0x00, 0x00, 0xf0, 0x01,
   0x06, 0x00, 0x00, 0x00, 0xc0, 0x72, 0x2f, 0xf0, 0x3f, 0x30, 0x00, 0x00,
   0x00, 0x00, 0xf0, 0x01, 0x06, 0x00, 0x00, 0x00, 0xe0, 0x6f, 0x26, 0x00,
   0x00, 0x60, 0x00, 0x00, 0x00, 0x00, 0xf0, 0x01, 0x0f, 0x00, 0x00, 0x00,
   0xe0, 0xe8, 0x23, 0x00, 0x03, 0x40, 0x00, 0x00, 0x00, 0x00, 0x78, 0x01,
   0x0f, 0x00, 0x00, 0x00, 0x60, 0xac, 0x63, 0xc0, 0x06, 0x60, 0x00, 0x00,
   0x00, 0x00, 0x78, 0x00, 0x07, 0x00, 0x00, 0x00, 0x00, 0x34, 0x60, 0x20,
   0x08, 0x38, 0x00, 0x00, 0x00, 0x00, 0x78, 0x00, 0x00, 0x00, 0x00, 0x00,
   0x00, 0x3c, 0x20, 0x20, 0x90, 0x18, 0x00, 0x00, 0x00, 0x00, 0x38, 0x00,
   0x00, 0x00, 0x00, 0x00, 0x00, 0x00, 0x30, 0x10, 0xf0, 0x0d, 0x00, 0x00,
   0x00, 0x00, 0x3c, 0x00, 0x00, 0x00, 0x00, 0x00, 0x00, 0x00, 0x30, 0x10,
   0xf6, 0x07, 0x00, 0x00, 0x00, 0x00, 0x0c, 0x00, 0x00, 0x00, 0x00, 0x00,
   0x00, 0x00, 0x10, 0x08, 0x63, 0x01, 0x00, 0x00, 0x00, 0x00, 0x02, 0x00,
   0x00, 0x00, 0x00, 0x00, 0x00, 0x00, 0x18, 0x08, 0x60, 0x01, 0x00, 0x00,
   0x00, 0x00, 0x00, 0x00, 0x00, 0x00, 0x00, 0x00, 0x00, 0x00, 0x0c, 0x08,
   0x40, 0x03, 0x00, 0x00, 0x00, 0xf8, 0xff, 0xff, 0xff, 0xff, 0xff, 0x3f,
   0x00, 0x00, 0x04, 0x08, 0x40, 0x02, 0x00, 0x00, 0x00, 0xf8, 0xff, 0xff,
   0xff, 0xff, 0xff, 0x3f, 0x00, 0x00, 0x06, 0x08, 0x7c, 0x02, 0x00, 0x00,
   0x00, 0xf8, 0xff, 0xff, 0xff, 0x03, 0x39, 0x3f, 0x00, 0x00, 0x02, 0x08,
   0xc0, 0x02, 0x00, 0x00, 0x00, 0xf8, 0x33, 0x44, 0xdb, 0x03, 0x11, 0x3f,
   0x00, 0x00, 0x02, 0x08, 0xc0, 0x02, 0x00, 0x00, 0x00, 0xf8, 0xad, 0x75,
   0x9a, 0xcf, 0x83, 0x3f, 0x00, 0x00, 0x02, 0x08, 0x80, 0x02, 0x00, 0x00,
   0x00, 0xf8, 0x2d, 0x44, 0x19, 0xcf, 0xc7, 0x3f, 0x00, 0x00, 0xc2, 0x1f,
   0x80, 0x02, 0x00, 0x00, 0x00, 0xf8, 0xad, 0x77, 0x1b, 0xce, 0xc7, 0x3f,
   0x00, 0x00, 0x02, 0x00, 0x80, 0x02, 0x00, 0x00, 0x00, 0xf8, 0xb3, 0x47,
   0x1b, 0xcf, 0x83, 0x3f, 0x00, 0x00, 0x02, 0x00, 0x80, 0x02, 0x00, 0x00,
   0x00, 0xf8, 0xff, 0xff, 0x9f, 0xcf, 0x11, 0x3f, 0x00, 0x00, 0x02, 0x00,
   0x80, 0x02, 0x00, 0x00, 0x00, 0xf8, 0x01, 0x00, 0xd8, 0xcf, 0x39, 0x3f,
   0x00, 0x00, 0x02, 0x00, 0x80, 0x02, 0x00, 0x00, 0x00, 0xf8, 0xff, 0xff,
   0xff, 0xff, 0xff, 0x3f, 0x00, 0x00, 0x06, 0x00, 0x40, 0x03, 0x00, 0x00,
   0x00, 0xf8, 0xff, 0xff, 0xff, 0xff, 0xff, 0x3f, 0x00, 0x00, 0xfc, 0xff,
   0xff, 0x01, 0x00, 0x00, 0x00, 0x00, 0x00, 0x00, 0x00, 0x00, 0x00, 0x00,
   0x00, 0x00, 0x00, 0x00, 0x00, 0x00, 0x00, 0x00, 0x00, 0x00, 0x00, 0x00,
   0x00, 0x00, 0x00, 0x00 };
